<svg width="12" height="16" viewBox="0 0 12 16" fill="none" xmlns="http://www.w3.org/2000/svg">
<path d="M9.42723 0.680707L2.42765 0.756897C1.60054 0.7659 0.934571 1.40129 0.942975 2.17339L1.07506 14.3081C1.08347 15.0802 1.76311 15.701 2.59021 15.692L9.5898 15.6158C10.4169 15.6068 11.0829 14.9714 11.0745 14.1993L10.9424 2.06454C10.934 1.29245 10.2543 0.671704 9.42723 0.680707ZM2.43781 1.69034L9.43739 1.61415C9.71325 1.61115 9.93964 1.81791 9.94244 2.07543L10.0491 11.8766L2.0496 11.9637L1.94292 2.1625C1.94011 1.90499 2.16194 1.69334 2.43781 1.69034ZM9.57964 14.6823L2.58005 14.7585C2.30419 14.7615 2.07781 14.5548 2.075 14.2973L2.05976 12.8971L10.0593 12.81L10.0745 14.2102C10.0773 14.4677 9.8555 14.6793 9.57964 14.6823Z" fill="#757575"/>
<path d="M3.41993 13.4858C3.61717 13.6661 3.62039 13.9616 3.42712 14.1461C3.23385 14.3306 2.9173 14.334 2.72006 14.1538C2.52282 13.9736 2.5196 13.678 2.71287 13.4935C2.90614 13.3091 3.22269 13.3056 3.41993 13.4858Z" fill="#757575"/>
</svg>
